<?xml version="1.0" standalone="no"?>
<!DOCTYPE svg PUBLIC "-//W3C//DTD SVG 20010904//EN"
 "http://www.w3.org/TR/2001/REC-SVG-20010904/DTD/svg10.dtd">
<svg version="1.0" xmlns="http://www.w3.org/2000/svg"
 width="1080.000000pt" height="1080.000000pt" viewBox="0 0 1080.000000 1080.000000"
 preserveAspectRatio="xMidYMid meet">
<metadata>
Created by potrace 1.14, written by Peter Selinger 2001-2017
</metadata>
<g transform="translate(0.000000,1080.000000) scale(0.100000,-0.100000)"
fill="#000000" stroke="none">
<path d="M5055 10119 c-1637 -117 -3112 -1092 -3861 -2554 -443 -865 -607
-1804 -483 -2775 217 -1710 1378 -3182 2999 -3803 367 -140 753 -233 1175
-284 214 -25 806 -25 1020 0 964 115 1797 471 2535 1086 148 123 448 423 571
571 652 784 1023 1695 1100 2702 15 198 7 661 -16 857 -158 1409 -923 2656
-2106 3434 -684 450 -1455 709 -2279 767 -168 11 -482 11 -655 -1z m361 -1102
c6 -12 887 -1390 1958 -3062 1072 -1672 1951 -3046 1953 -3052 4 -10 -79 -13
-378 -15 l-384 -3 -40 95 c-245 574 -676 1104 -1193 1467 -711 498 -1579 701
-2452 573 -1140 -167 -2137 -927 -2606 -1985 l-62 -140 -380 -5 c-252 -3 -378
-2 -374 5 3 6 236 370 517 810 282 440 679 1061 882 1380 203 319 425 666 493
770 112 173 1025 1596 1750 2728 161 251 295 457 299 457 3 0 11 -10 17 -23z
m-151 -4227 c3 -5 -1 -10 -10 -10 -9 0 -13 5 -10 10 3 6 8 10 10 10 2 0 7 -4
10 -10z m125 1 c-8 -5 -36 -11 -63 -14 -41 -4 -45 -3 -30 9 10 7 38 13 63 13
30 0 40 -2 30 -8z m260 -1 c0 -5 -9 -10 -21 -10 -11 0 -17 5 -14 10 3 6 13 10
21 10 8 0 14 -4 14 -10z m70 -10 c-20 -13 -33 -13 -25 0 3 6 14 10 23 10 15 0
15 -2 2 -10z m-785 -20 c20 -8 20 -9 -1 -9 -20 -1 -85 -24 -159 -55 -36 -16
-137 -46 -153 -46 -10 0 -118 -47 -164 -71 -24 -12 -28 -11 -28 6 0 8 9 20 20
27 11 7 20 19 20 27 0 19 -63 8 -143 -24 -33 -14 -67 -25 -74 -25 -8 0 -12 -4
-8 -10 4 -6 15 -6 30 0 14 5 35 6 47 1 21 -8 20 -9 -12 -16 -19 -4 -42 -13
-50 -20 -24 -21 -126 -59 -111 -41 6 8 24 17 38 21 17 4 22 10 16 16 -12 12
-76 -14 -124 -52 -19 -15 -58 -37 -85 -48 -70 -27 -144 -73 -144 -90 0 -10 7
-11 28 -6 15 5 36 9 47 9 23 2 105 52 105 65 0 5 21 22 48 39 36 23 55 28 83
25 21 -3 40 0 43 6 10 16 26 13 26 -4 0 -8 6 -15 13 -15 9 0 9 -2 -1 -8 -7 -5
-10 -16 -6 -25 5 -13 0 -17 -17 -18 -69 -3 -103 -10 -125 -24 -29 -18 -23 -41
6 -25 10 5 25 10 32 10 20 -1 -14 -18 -88 -45 -68 -25 -135 -70 -215 -146 -25
-24 -67 -61 -92 -82 -38 -31 -48 -46 -54 -80 -6 -37 -7 -39 -16 -19 -13 29
-36 28 -78 -2 -19 -14 -47 -32 -64 -41 -36 -20 -125 -119 -125 -139 0 -8 14
-18 32 -21 29 -7 36 -3 81 44 54 57 69 66 38 22 -28 -39 -27 -53 4 -45 23 6
25 4 19 -25 -6 -27 -4 -31 14 -31 12 0 24 5 27 10 3 6 19 10 34 10 22 0 32 8
47 38 23 45 33 54 57 48 10 -2 45 7 78 20 48 20 64 22 81 13 12 -6 47 -9 81
-7 52 4 60 2 65 -14 2 -10 8 -18 12 -18 4 0 7 -8 6 -17 -1 -15 7 -17 59 -14
120 7 152 6 168 -8 15 -12 15 -16 1 -45 -9 -17 -24 -40 -33 -51 -10 -11 -23
-54 -29 -95 -13 -79 -15 -82 -102 -149 -20 -15 -29 -29 -25 -39 3 -8 3 -30 -1
-49 -5 -28 -10 -33 -28 -28 -20 6 -20 5 -2 -9 17 -14 17 -16 -13 -45 -18 -17
-38 -31 -46 -31 -18 0 -19 -12 -4 -27 9 -9 0 -25 -32 -63 -34 -41 -40 -53 -29
-60 12 -8 12 -14 -2 -43 -18 -37 -15 -47 11 -47 13 0 15 -9 13 -44 -4 -41 -2
-44 26 -54 17 -6 33 -8 36 -5 3 4 6 2 6 -3 0 -13 -59 -33 -87 -30 -13 1 -35
13 -50 26 -16 14 -31 24 -35 22 -5 -1 -8 6 -8 15 0 10 -7 27 -15 37 -9 11 -12
30 -9 45 4 18 3 22 -4 12 -15 -21 -39 69 -47 174 -4 50 -9 94 -12 99 -3 4 -7
27 -8 51 -3 56 -9 64 -55 71 -25 4 -49 18 -71 40 -18 19 -39 34 -46 34 -20 0
-5 107 20 149 33 55 27 100 -9 71 -11 -10 -27 -10 -71 -1 -80 16 -104 14 -154
-12 -74 -39 -86 -40 -93 -2 -4 20 -17 40 -32 50 l-25 16 3 -33 c4 -40 -16 -50
-20 -11 -2 15 -7 32 -12 37 -12 12 11 54 66 121 25 31 44 61 41 68 -2 6 5 19
15 29 20 20 24 38 7 38 -11 0 -93 -67 -178 -144 -42 -38 -43 -39 -15 -6 42 50
105 110 113 110 5 0 16 10 27 22 45 50 264 203 384 267 36 19 81 47 100 62 19
15 74 46 123 69 48 23 90 46 93 51 3 5 14 9 25 9 20 0 59 19 70 33 3 4 17 9
30 11 32 4 76 22 83 35 3 5 66 28 139 51 72 23 139 45 147 48 14 4 26 7 68 15
9 2 35 9 57 15 34 9 289 60 305 60 3 1 14 -3 25 -8z m62 4 c-3 -3 -12 -4 -19
-1 -8 3 -5 6 6 6 11 1 17 -2 13 -5z m852 -8 c-2 -2 -35 -7 -74 -10 -49 -5 -66
-4 -55 3 13 10 139 16 129 7z m-327 -12 c37 -4 65 -11 62 -15 -7 -12 13 -11
36 1 14 7 37 6 80 -3 33 -8 60 -11 60 -8 0 6 172 5 272 -2 45 -4 55 -2 51 9
-7 20 26 18 70 -5 21 -11 40 -15 43 -9 3 5 15 3 27 -5 12 -8 105 -40 207 -72
102 -31 193 -61 202 -66 10 -5 19 -5 22 0 9 14 45 1 60 -21 8 -12 26 -20 45
-20 17 -1 31 -5 31 -10 0 -5 8 -11 18 -15 33 -12 467 -227 472 -234 3 -4 32
-23 65 -43 79 -47 125 -86 104 -86 -9 0 -22 7 -29 15 -7 9 -19 14 -25 11 -7
-2 -27 5 -45 15 -24 15 -36 17 -44 9 -8 -8 -4 -17 17 -32 15 -11 27 -29 27
-41 0 -18 -10 -11 -59 37 -42 41 -57 63 -54 77 4 12 0 19 -10 19 -8 0 -20 7
-27 15 -10 12 -16 13 -27 3 -10 -8 -17 -9 -21 -1 -13 21 -105 63 -138 63 -48
0 -42 -15 11 -30 25 -7 45 -17 45 -22 0 -4 12 -14 28 -20 40 -18 106 -79 107
-100 1 -10 -2 -18 -7 -18 -4 0 -8 4 -8 9 0 4 -10 21 -22 37 l-22 28 -6 -25
c-4 -18 -13 -25 -38 -27 -36 -4 -42 -21 -12 -40 11 -7 20 -19 20 -27 0 -22
-28 -18 -35 4 -8 25 -71 81 -91 81 -9 0 -24 10 -34 23 -14 16 -22 19 -30 11
-8 -8 -2 -17 24 -32 23 -14 34 -26 30 -35 -3 -8 5 -26 18 -40 51 -56 51 -57
32 -78 -15 -17 -27 -19 -80 -15 -56 5 -62 4 -67 -14 -3 -11 -10 -20 -16 -20
-14 0 -14 17 -1 25 18 11 11 23 -21 34 -18 6 -34 11 -35 11 -7 0 -4 -30 5 -48
27 -53 41 -96 34 -102 -17 -16 -53 -21 -53 -8 -1 7 -16 30 -35 52 -40 45 -65
43 -65 -4 0 -50 -17 -33 -24 24 -7 67 -14 86 -31 86 -16 0 -71 62 -80 91 -7
20 -12 21 -65 16 -76 -7 -111 -24 -132 -66 -32 -63 -41 -66 -75 -24 -48 60
-66 102 -60 140 5 30 4 33 -13 28 -12 -4 -34 5 -60 24 -23 16 -56 33 -73 36
-18 4 -43 13 -57 20 -21 11 -165 72 -215 91 -10 4 -15 0 -15 -10 0 -9 6 -16
14 -16 8 0 16 -7 19 -14 9 -22 66 -48 92 -42 14 4 28 0 35 -9 7 -8 19 -15 26
-15 23 0 16 -14 -19 -37 -34 -23 -119 -49 -199 -59 -57 -8 -69 -20 -34 -36 20
-9 35 -8 65 2 36 12 75 6 54 -9 -5 -3 -17 -19 -26 -34 -10 -16 -56 -53 -102
-82 -107 -69 -119 -88 -110 -160 9 -75 1 -92 -53 -118 -44 -21 -47 -25 -50
-65 -3 -35 -8 -45 -33 -57 -19 -10 -29 -23 -29 -39 0 -43 -131 -116 -209 -116
l-38 0 -32 108 c-38 125 -47 177 -32 187 6 3 11 38 11 80 0 71 -1 74 -30 92
-36 21 -44 41 -30 77 13 34 13 39 0 31 -5 -3 -7 0 -4 8 15 41 -72 52 -193 24
-110 -25 -141 -28 -147 -11 -3 9 -10 13 -14 10 -5 -3 -24 10 -42 29 -27 28
-31 38 -26 62 4 15 9 43 10 61 1 18 10 38 18 45 102 81 174 135 199 148 17 10
68 20 120 24 49 4 92 11 95 16 3 5 21 9 40 9 30 0 34 -3 30 -18 -6 -17 4 -20
88 -30 218 -27 373 -4 312 47 -8 6 -38 11 -68 10 -60 -2 -78 4 -78 27 0 8 -4
14 -9 14 -23 0 -41 -14 -41 -31 0 -10 -4 -19 -10 -19 -5 0 -10 5 -10 10 0 6
-11 15 -25 20 -14 5 -25 13 -25 18 0 14 -66 41 -80 32 -7 -4 -25 -4 -41 0 -38
11 -89 -2 -189 -49 -132 -62 -165 -64 -121 -10 13 16 33 24 66 28 28 4 50 12
53 20 3 8 0 11 -7 7 -6 -4 -11 -1 -11 8 0 9 8 16 19 16 27 0 51 10 51 22 0 10
-25 7 -65 -7 -19 -6 -19 -6 -2 8 12 10 14 17 8 22 -6 3 -11 2 -11 -3 0 -5 -18
-16 -40 -25 -50 -19 -51 -14 -2 17 43 27 109 45 98 27 -4 -6 1 -14 11 -18 10
-4 20 -10 23 -15 8 -11 76 9 95 28 9 9 25 14 35 11 13 -3 20 0 20 8 0 18 -21
24 -43 13 -9 -5 -22 -6 -28 -2 -16 10 7 21 99 49 81 25 162 30 284 19z m-617
-54 c-3 -5 -22 -12 -43 -15 -20 -3 -48 -8 -60 -11 -15 -3 -21 -1 -17 6 3 5 21
10 38 10 18 0 39 5 47 10 19 13 43 13 35 0z m251 -166 c-4 -9 -9 -15 -11 -12
-3 3 -3 13 1 22 4 9 9 15 11 12 3 -3 3 -13 -1 -22z m101 20 l22 -6 -26 -24
c-27 -25 -53 -32 -53 -14 0 6 10 10 22 10 17 0 19 3 10 12 -24 24 -15 33 25
22z m2006 -443 c28 -15 39 -38 12 -27 -12 4 -14 0 -9 -22 4 -15 11 -35 16 -44
7 -16 5 -17 -17 -8 -14 5 -25 7 -25 4 0 -3 -5 -2 -12 2 -7 4 -26 8 -43 8 -23
1 -30 6 -30 21 0 21 3 21 68 8 30 -6 34 4 12 33 -15 20 -20 48 -7 42 4 -2 19
-10 35 -17z m-888 -83 c-11 -36 -25 -45 -25 -17 0 27 7 39 22 39 5 0 6 -10 3
-22z m-2545 -22 c0 -9 -71 -48 -77 -43 -3 3 10 15 28 26 33 20 49 26 49 17z
m3230 -21 c-7 -9 -15 -13 -17 -11 -7 7 7 26 19 26 6 0 6 -6 -2 -15z m-3320 -5
c0 -5 -17 -12 -37 -15 -21 -3 -51 -13 -68 -21 l-30 -16 24 26 c13 14 33 27 45
29 40 8 66 7 66 -3z m2935 -102 c14 -17 38 -41 53 -52 l27 -21 -23 33 c-13 17
-19 32 -13 32 15 0 40 -57 34 -79 -3 -13 5 -25 26 -40 30 -22 30 -22 11 -41
-11 -11 -23 -20 -26 -20 -11 0 -33 32 -66 95 -17 33 -39 72 -49 87 -35 49 -14
54 26 6z m405 6 c0 -18 12 -38 36 -60 19 -19 33 -38 30 -43 -4 -5 -1 -22 4
-37 13 -34 -9 -56 -24 -23 -6 11 -15 18 -24 14 -8 -3 -12 0 -9 7 2 7 12 12 22
10 15 -3 16 1 10 25 -8 35 -35 65 -51 59 -7 -3 -15 5 -18 17 -10 37 -7 57 9
57 10 0 15 -10 15 -26z m-1313 -91 c-13 -21 -30 -55 -38 -77 -17 -48 -52 -86
-79 -86 -20 0 -28 28 -12 44 4 4 7 11 7 14 3 33 31 85 54 97 15 7 33 21 40 29
8 9 22 16 32 16 18 0 18 -2 -4 -37z m1273 7 c-8 -5 -19 -11 -25 -13 -6 -2 -5
-10 3 -20 11 -13 10 -17 -4 -25 -13 -7 -14 -13 -6 -29 9 -16 6 -24 -20 -46
-31 -28 -48 -34 -48 -18 0 5 -14 14 -31 22 -29 11 -68 73 -55 86 2 3 26 7 53
9 53 5 103 22 103 34 0 9 32 19 40 13 2 -2 -2 -8 -10 -13z m60 -12 c0 -19 -2
-20 -10 -8 -13 19 -13 30 0 30 6 0 10 -10 10 -22z m-263 -134 c7 -7 29 -18 48
-24 19 -6 33 -15 30 -20 -3 -5 15 -19 39 -31 25 -12 43 -26 40 -30 -5 -8 -35
-1 -44 11 -8 10 -106 70 -114 70 -4 0 -14 7 -23 16 -9 8 -22 13 -29 10 -15 -6
-19 6 -7 17 8 9 43 -2 60 -19z m274 -4 c20 -16 21 -19 7 -20 -9 0 -20 5 -23
10 -3 6 -15 10 -26 10 -27 0 -24 -20 4 -21 18 -1 18 -2 4 -6 -13 -3 -16 -10
-11 -21 3 -10 8 -28 10 -42 4 -22 3 -23 -5 -5 -5 11 -13 29 -17 40 -7 18 -8
17 -12 -8 -3 -23 -6 -26 -18 -16 -20 17 -17 49 8 76 26 28 48 29 79 3z m78
-52 c-17 -34 -19 -34 -19 -5 0 18 5 27 15 27 13 0 14 -4 4 -22z m72 -58 c5 0
9 -11 9 -24 0 -29 19 -44 31 -25 6 10 9 11 9 2 0 -7 10 -13 23 -14 31 0 127
-117 127 -154 0 -15 9 -40 21 -56 11 -16 17 -29 12 -29 -15 0 -30 15 -46 45
-22 44 -52 68 -75 60 -15 -4 -22 0 -27 15 -3 11 -13 20 -21 20 -8 0 -14 6 -13
13 3 19 -12 67 -21 67 -5 0 -12 -4 -15 -10 -3 -5 -12 -10 -18 -10 -7 0 -5 6 5
14 16 12 16 14 -3 29 -10 9 -19 23 -19 31 0 7 -7 19 -15 26 -8 7 -12 16 -9 21
3 5 12 2 20 -6 9 -8 20 -15 25 -15z m-191 -21 c10 -6 5 -7 -14 -3 -19 5 -31 2
-37 -7 -6 -10 -9 -8 -9 9 0 20 4 22 23 16 12 -3 29 -10 37 -15z m140 12 c0 -5
-9 -7 -20 -4 -11 3 -20 7 -20 9 0 2 9 4 20 4 11 0 20 -4 20 -9z m-85 -40 c-6
-5 -23 -13 -40 -17 -27 -7 -29 -6 -16 9 7 10 25 17 39 17 16 0 22 -4 17 -9z
m-3 -103 c14 -14 23 -18 26 -10 2 7 10 12 18 12 9 0 12 5 8 11 -12 19 40 -2
54 -22 7 -11 20 -19 28 -19 18 0 18 -8 -1 -26 -21 -22 -19 -28 21 -69 l35 -37
31 41 c16 23 30 41 31 41 3 0 7 -64 7 -109 0 -24 4 -49 9 -55 5 -6 14 -36 21
-67 17 -74 5 -93 -76 -130 -66 -30 -147 -39 -160 -18 -3 6 -22 17 -40 25 -30
13 -33 17 -24 39 9 24 -1 42 -18 31 -4 -2 -8 3 -9 12 -7 66 -16 82 -57 101
-37 18 -140 38 -223 43 -37 3 -42 17 -14 42 15 14 18 26 14 52 -3 19 -1 45 5
57 5 12 12 29 15 38 5 14 17 16 77 11 47 -3 79 -1 95 8 13 7 30 10 37 8 7 -3
22 -2 33 3 30 12 33 11 57 -13z m431 -68 c4 -17 0 -20 -29 -20 -19 0 -34 5
-34 11 0 7 10 9 25 5 14 -4 25 -2 25 4 0 5 -4 10 -10 10 -5 0 -10 7 -10 16 0
22 26 1 33 -26z m52 -96 c8 -3 11 -12 8 -20 -4 -11 -9 -8 -19 12 -8 14 -13 34
-13 43 1 9 4 6 6 -7 3 -13 11 -26 18 -28z"/>
<path d="M4468 6597 c-504 -788 -913 -1433 -909 -1435 4 -1 61 23 127 54 399
188 785 301 1236 360 170 22 598 30 785 14 487 -40 951 -164 1372 -366 85 -41
155 -73 156 -72 1 2 -126 201 -282 443 -156 242 -345 537 -421 655 -75 118
-355 558 -623 976 -268 419 -492 771 -498 783 -7 11 -15 21 -19 21 -4 -1 -419
-645 -924 -1433z"/>
<path d="M3973 4468 c-13 -6 -23 -15 -23 -20 0 -5 6 -7 13 -4 6 3 20 9 30 12
9 4 17 10 17 15 0 11 -9 10 -37 -3z"/>
<path d="M3776 4263 c-11 -11 -6 -23 9 -23 8 0 15 4 15 9 0 13 -16 22 -24 14z"/>
<path d="M5333 4722 c-13 -2 -28 -11 -35 -21 -7 -9 -21 -20 -30 -24 -10 -3
-18 -11 -18 -17 0 -13 87 -13 95 0 3 6 15 10 26 10 10 0 19 5 19 10 0 6 -7 10
-16 10 -10 0 -14 6 -11 15 7 18 -1 22 -30 17z"/>
<path d="M5980 4690 c0 -5 12 -10 26 -10 14 0 23 4 19 10 -3 6 -15 10 -26 10
-10 0 -19 -4 -19 -10z"/>
<path d="M5465 4570 c-10 -11 -16 -22 -14 -24 2 -2 54 -6 114 -10 100 -5 108
-5 90 10 -11 8 -28 13 -37 10 -13 -3 -18 2 -18 15 0 22 -4 23 -30 7 -16 -10
-24 -10 -40 0 -28 17 -44 15 -65 -8z"/>
<path d="M5783 4568 c-41 -11 -42 -25 -3 -42 22 -9 27 -15 19 -23 -8 -8 -3
-16 21 -28 17 -9 38 -14 45 -11 22 8 -11 66 -37 66 -17 0 -18 2 -8 15 19 23 1
34 -37 23z"/>
<path d="M6680 4550 c0 -5 5 -10 10 -10 6 0 10 5 10 10 0 6 -4 10 -10 10 -5 0
-10 -4 -10 -10z"/>
<path d="M5510 4401 c0 -6 7 -14 15 -17 8 -4 15 -12 15 -20 0 -7 11 -21 25
-30 14 -9 25 -21 25 -27 0 -10 68 -73 98 -91 8 -4 -15 31 -51 79 -36 47 -67
90 -69 95 -5 14 -58 24 -58 11z"/>
<path d="M7115 3049 c-10 -15 3 -25 16 -12 7 7 7 13 1 17 -6 3 -14 1 -17 -5z"/>
</g>
</svg>
